<?xml version='1.0' encoding='utf-8'?>
<svg xmlns="http://www.w3.org/2000/svg" viewBox="0 0 200 200" width="200" height="200"><circle cx="100" cy="100" r="95" fill="none" stroke="black" stroke-width="4" /><line x1="115.0" y1="100.0" x2="100.0" y2="195.0" stroke="black" stroke-width="0.8" /><line x1="114.71177920604846" y1="102.92635483024192" x2="81.46641940846781" y2="193.1746016383069" stroke="black" stroke-width="0.8" /><line x1="113.8581929876693" y1="105.74025148547635" x2="63.645073925316474" y2="187.76855558857224" stroke="black" stroke-width="0.8" /><line x1="112.47204418453818" y1="108.33355349529404" x2="47.22082786313779" y2="178.98961316874178" stroke="black" stroke-width="0.8" /><line x1="110.60660171779821" y1="110.60660171779821" x2="32.824855787278" y2="167.17514421272205" stroke="black" stroke-width="0.8" /><line x1="108.33355349529404" y1="112.47204418453818" x2="21.010386831258188" y2="152.7791721368622" stroke="black" stroke-width="0.8" /><line x1="105.74025148547635" y1="113.8581929876693" x2="12.231444411427773" y2="136.35492607468353" stroke="black" stroke-width="0.8" /><line x1="102.92635483024192" y1="114.71177920604846" x2="6.825398361693104" y2="118.53358059153217" stroke="black" stroke-width="0.8" /><line x1="100.0" y1="115.0" x2="5.0" y2="100.00000000000001" stroke="black" stroke-width="0.8" /><line x1="97.07364516975808" y1="114.71177920604846" x2="6.825398361693104" y2="81.4664194084678" stroke="black" stroke-width="0.8" /><line x1="94.25974851452365" y1="113.8581929876693" x2="12.23144441142776" y2="63.64507392531648" stroke="black" stroke-width="0.8" /><line x1="91.66644650470596" y1="112.47204418453818" x2="21.010386831258202" y2="47.22082786313779" stroke="black" stroke-width="0.8" /><line x1="89.39339828220179" y1="110.60660171779821" x2="32.82485578727797" y2="32.824855787278" stroke="black" stroke-width="0.8" /><line x1="87.52795581546182" y1="108.33355349529403" x2="47.220827863137806" y2="21.010386831258188" stroke="black" stroke-width="0.8" /><line x1="86.1418070123307" y1="105.74025148547635" x2="63.645073925316495" y2="12.23144441142776" stroke="black" stroke-width="0.8" /><line x1="85.28822079395154" y1="102.92635483024192" x2="81.46641940846777" y2="6.825398361693104" stroke="black" stroke-width="0.8" /><line x1="85.0" y1="100.0" x2="99.99999999999999" y2="5.0" stroke="black" stroke-width="0.8" /><line x1="85.28822079395154" y1="97.07364516975808" x2="118.53358059153219" y2="6.825398361693104" stroke="black" stroke-width="0.8" /><line x1="86.1418070123307" y1="94.25974851452365" x2="136.35492607468356" y2="12.231444411427773" stroke="black" stroke-width="0.8" /><line x1="87.52795581546182" y1="91.66644650470596" x2="152.77917213686217" y2="21.010386831258188" stroke="black" stroke-width="0.8" /><line x1="89.39339828220179" y1="89.39339828220179" x2="167.175144212722" y2="32.82485578727797" stroke="black" stroke-width="0.8" /><line x1="91.66644650470597" y1="87.52795581546182" x2="178.9896131687418" y2="47.22082786313779" stroke="black" stroke-width="0.8" /><line x1="94.25974851452366" y1="86.1418070123307" x2="187.76855558857224" y2="63.64507392531649" stroke="black" stroke-width="0.8" /><line x1="97.07364516975807" y1="85.28822079395154" x2="193.1746016383069" y2="81.46641940846777" stroke="black" stroke-width="0.8" /><line x1="100.0" y1="85.0" x2="195.0" y2="100.0" stroke="black" stroke-width="0.8" /><line x1="102.92635483024192" y1="85.28822079395154" x2="193.1746016383069" y2="118.53358059153219" stroke="black" stroke-width="0.8" /><line x1="105.74025148547635" y1="86.1418070123307" x2="187.7685555885722" y2="136.35492607468353" stroke="black" stroke-width="0.8" /><line x1="108.33355349529403" y1="87.52795581546182" x2="178.9896131687418" y2="152.7791721368622" stroke="black" stroke-width="0.8" /><line x1="110.60660171779821" y1="89.39339828220179" x2="167.17514421272205" y2="167.17514421272202" stroke="black" stroke-width="0.8" /><line x1="112.47204418453818" y1="91.66644650470596" x2="152.7791721368622" y2="178.9896131687418" stroke="black" stroke-width="0.8" /><line x1="113.8581929876693" y1="94.25974851452365" x2="136.35492607468353" y2="187.7685555885722" stroke="black" stroke-width="0.8" /><line x1="114.71177920604846" y1="97.07364516975807" x2="118.5335805915322" y2="193.1746016383069" stroke="black" stroke-width="0.8" /><circle cx="100" cy="100" r="15" fill="black" stroke="none" /><text x="100" y="108" text-anchor="middle" fill="white" font-size="28" font-family="Arial" font-weight="bold">RR</text></svg>